<?xml version="1.0" encoding="utf-8"?>
<!-- Generator: Adobe Illustrator 25.2.1, SVG Export Plug-In . SVG Version: 6.00 Build 0)  -->
<svg version="1.1" id="Layer_1" xmlns="http://www.w3.org/2000/svg" xmlns:xlink="http://www.w3.org/1999/xlink" x="0px" y="0px"
	 viewBox="0 0 262.5 88.5" style="enable-background:new 0 0 262.5 88.5;" xml:space="preserve">
<style type="text/css">
	.st0{clip-path:url(#SVGID_4_);}
	.st1{fill:#262626;}
	.st2{fill:#5A5A5A;}
	.st3{clip-path:url(#SVGID_5_);}
	.st4{clip-path:url(#SVGID_6_);}
	.st5{font-family:'AvenirNext-Regular';}
	.st6{font-size:12px;}
	.st7{fill:none;stroke:#B8B8B8;stroke-width:2.25;}
</style>
<g id="Text">
	<g id="Top">
		<defs>
			<rect id="SVGID_3_" x="0" y="-3" width="262.5" height="24"/>
		</defs>
		<clipPath id="SVGID_4_">
			<use xlink:href="#SVGID_3_"  style="overflow:visible;"/>
		</clipPath>
		<g id="Illposed" class="st0">
			<path class="st1" d="M28.3,63h-7.1V12h7.1V63z"/>
			<path class="st1" d="M47.3,63h-6.8V8.6h6.8V63z"/>
			<path class="st1" d="M66,63h-6.8V8.6H66V63z"/>
			<path class="st2" d="M81.8,77.4h-5.6V34.6h5.5V39h0.2c0.9-1.5,2.3-2.8,4-3.8s3.8-1.5,6.2-1.5c2.1,0,4,0.4,5.8,1.1
				s3.2,1.8,4.5,3.2c1.3,1.4,2.2,3,2.9,4.8s1,3.8,1,5.8s-0.3,4-1,5.9s-1.6,3.4-2.9,4.8c-1.2,1.4-2.7,2.4-4.5,3.2
				c-1.8,0.8-3.7,1.2-5.9,1.2c-2,0-3.9-0.4-5.8-1.3s-3.2-2.1-4.2-3.7h-0.2L81.8,77.4L81.8,77.4z M100.5,48.7c0-1.3-0.2-2.6-0.6-3.8
				s-1-2.3-1.8-3.3s-1.8-1.7-3-2.3c-1.2-0.6-2.6-0.8-4.1-0.8c-1.4,0-2.8,0.3-3.9,0.8s-2.2,1.3-3,2.3s-1.5,2.1-1.9,3.3
				c-0.5,1.2-0.7,2.5-0.7,3.9s0.2,2.7,0.7,3.9S83.2,55,84,56c0.8,0.9,1.8,1.7,3,2.2S89.5,59,91,59c1.6,0,2.9-0.3,4.1-0.9
				c1.2-0.6,2.2-1.3,3-2.3c0.8-1,1.4-2.1,1.8-3.3C100.3,51.3,100.5,50,100.5,48.7z"/>
			<path class="st2" d="M142.9,48.7c0,2.2-0.4,4.2-1.2,6.1s-1.9,3.4-3.2,4.8s-3,2.4-4.9,3.1c-1.9,0.7-3.9,1.1-6.1,1.1
				s-4.2-0.4-6.1-1.1s-3.5-1.8-4.9-3.1s-2.4-2.9-3.2-4.8s-1.2-3.9-1.2-6.1s0.4-4.2,1.2-6s1.8-3.4,3.2-4.7s3-2.3,4.9-3.1
				s3.9-1.1,6.1-1.1c2.2,0,4.2,0.4,6.1,1.1s3.5,1.8,4.9,3.1s2.5,2.9,3.2,4.7C142.6,44.5,142.9,46.5,142.9,48.7z M137.1,48.8
				c0-1.4-0.2-2.7-0.6-3.9c-0.4-1.2-1-2.3-1.8-3.3s-1.8-1.7-3-2.2s-2.5-0.8-4.1-0.8c-1.5,0-2.9,0.3-4.1,0.8s-2.2,1.3-3,2.2
				c-0.8,0.9-1.4,2-1.8,3.3c-0.4,1.2-0.6,2.5-0.6,3.9s0.2,2.7,0.6,3.9c0.4,1.2,1,2.3,1.8,3.3c0.8,1,1.8,1.7,3,2.3s2.5,0.8,4.1,0.8
				c1.5,0,2.9-0.3,4.1-0.8s2.2-1.3,3-2.3c0.8-1,1.4-2,1.8-3.3C136.9,51.4,137.1,50.1,137.1,48.8z"/>
			<path class="st2" d="M166.1,41.8c-0.6-1-1.5-1.9-2.7-2.5s-2.5-1-3.9-1c-0.6,0-1.3,0.1-1.9,0.2s-1.2,0.4-1.7,0.7s-0.9,0.7-1.2,1.1
				s-0.4,1-0.4,1.7c0,1.2,0.5,2.1,1.6,2.7c1.1,0.6,2.7,1.1,4.9,1.6c1.4,0.3,2.6,0.7,3.8,1.1s2.2,1,3,1.7s1.5,1.5,2,2.4
				s0.7,2,0.7,3.2c0,1.7-0.3,3.1-1,4.3s-1.5,2.1-2.6,2.8s-2.3,1.3-3.6,1.6s-2.8,0.5-4.2,0.5c-2.2,0-4.3-0.4-6.3-1.3
				c-2.1-0.8-3.8-2.1-5.1-3.8l4-3.4c0.8,1.1,1.8,2.1,3.1,2.8s2.8,1.1,4.4,1.1c0.7,0,1.4-0.1,2.1-0.2s1.3-0.4,1.8-0.7
				c0.5-0.3,1-0.7,1.3-1.3c0.3-0.5,0.5-1.2,0.5-2c0-1.3-0.6-2.3-1.9-2.9s-3.1-1.2-5.6-1.8c-1-0.2-1.9-0.5-2.9-0.9
				c-1-0.3-1.9-0.8-2.7-1.4s-1.4-1.3-1.9-2.2s-0.8-2-0.8-3.3c0-1.5,0.3-2.8,0.9-3.9s1.4-2,2.4-2.7s2.1-1.2,3.4-1.6s2.6-0.5,4-0.5
				c2,0,4,0.4,5.9,1.2c1.9,0.8,3.4,2,4.4,3.5L166.1,41.8z"/>
			<path class="st2" d="M204,48.5c0,0.3,0,0.6,0,1s0,0.6-0.1,1h-22.6c0,1.2,0.3,2.3,0.8,3.4c0.5,1,1.2,2,2,2.7s1.8,1.4,2.9,1.8
				s2.3,0.7,3.5,0.7c1.9,0,3.6-0.4,5-1.3s2.5-1.9,3.3-3.1l4,3.2c-1.5,2-3.3,3.5-5.4,4.5s-4.4,1.4-6.9,1.4c-2.2,0-4.2-0.4-6-1.1
				s-3.4-1.7-4.7-3s-2.4-2.9-3.1-4.7s-1.1-3.9-1.1-6.1c0-2.2,0.4-4.2,1.1-6.1s1.8-3.5,3.1-4.8s2.9-2.3,4.7-3.1s3.8-1.1,5.8-1.1
				s4,0.3,5.7,1s3.1,1.7,4.3,2.9c1.2,1.3,2.1,2.8,2.7,4.7C203.6,44.2,204,46.3,204,48.5z M198.2,46.3c0-1.1-0.2-2.2-0.6-3.2
				c-0.3-1-0.8-1.8-1.5-2.5c-0.7-0.7-1.5-1.3-2.5-1.7c-1-0.4-2.1-0.6-3.4-0.6c-1.2,0-2.3,0.2-3.4,0.6c-1.1,0.4-2,1-2.8,1.7
				c-0.8,0.7-1.4,1.6-1.9,2.5s-0.8,2-0.9,3.2H198.2z"/>
			<path class="st2" d="M234.4,58.5c-1.1,1.7-2.6,3-4.4,3.9s-3.8,1.3-5.9,1.3c-2.2,0-4.2-0.4-5.9-1.2c-1.8-0.8-3.3-1.8-4.5-3.2
				s-2.2-3-2.9-4.8c-0.7-1.8-1-3.8-1-5.9s0.3-4,1-5.8c0.7-1.8,1.6-3.4,2.9-4.8c1.3-1.4,2.8-2.4,4.5-3.2s3.7-1.1,5.8-1.1
				c2.3,0,4.3,0.5,6.1,1.5s3.1,2.2,4.1,3.6h0.1V17.6h5.6V63h-5.5v-4.5H234.4z M215.7,48.8c0,1.3,0.2,2.6,0.6,3.8
				c0.4,1.2,1,2.3,1.8,3.3s1.8,1.7,2.9,2.3c1.2,0.6,2.5,0.9,4.1,0.9c1.4,0,2.8-0.3,3.9-0.8s2.2-1.3,3-2.2c0.8-0.9,1.5-2,1.9-3.3
				c0.5-1.2,0.7-2.5,0.7-3.9s-0.2-2.7-0.7-3.9c-0.5-1.2-1.1-2.3-1.9-3.3c-0.8-1-1.9-1.7-3-2.3s-2.5-0.8-3.9-0.8
				c-1.6,0-2.9,0.3-4.1,0.8s-2.1,1.3-2.9,2.3c-0.8,1-1.4,2-1.8,3.3C215.9,46.2,215.7,47.4,215.7,48.8z"/>
		</g>
	</g>
	<g id="Middle">
		<defs>
			<rect id="SVGID_1_" x="0" y="25.5" width="262.5" height="18"/>
		</defs>
		<clipPath id="SVGID_5_">
			<use xlink:href="#SVGID_1_"  style="overflow:visible;"/>
		</clipPath>
		<g id="Illposed_1_" class="st3">
			<path class="st1" d="M28.4,66.2h-7.1v-51h7.1V66.2z"/>
			<path class="st1" d="M47.4,66.2h-6.8V11.8h6.8V66.2z"/>
			<path class="st1" d="M66.1,66.2h-6.8V11.8h6.8V66.2z"/>
			<path class="st2" d="M81.8,80.6h-5.6V37.8h5.5v4.4h0.2c0.9-1.5,2.3-2.8,4-3.8s3.8-1.5,6.2-1.5c2.1,0,4,0.4,5.8,1.1
				s3.2,1.8,4.5,3.2c1.3,1.4,2.2,3,2.9,4.8s1,3.8,1,5.8s-0.3,4-1,5.9s-1.6,3.4-2.9,4.8c-1.2,1.4-2.7,2.4-4.5,3.2
				C96.2,66.6,94.2,67,92,67c-2,0-3.9-0.4-5.8-1.3s-3.2-2.1-4.2-3.7h-0.2L81.8,80.6L81.8,80.6z M100.6,51.9c0-1.3-0.2-2.6-0.6-3.8
				s-1-2.3-1.8-3.3s-1.8-1.7-3-2.3c-1.2-0.6-2.6-0.8-4.1-0.8c-1.4,0-2.8,0.3-3.9,0.8s-2.2,1.3-3,2.3s-1.5,2.1-1.9,3.3
				c-0.5,1.2-0.7,2.5-0.7,3.9s0.2,2.7,0.7,3.9s1.1,2.3,1.9,3.3c0.8,0.9,1.8,1.7,3,2.2s2.5,0.8,3.9,0.8c1.6,0,2.9-0.3,4.1-0.9
				c1.2-0.6,2.2-1.3,3-2.3c0.8-1,1.4-2.1,1.8-3.3C100.4,54.5,100.6,53.2,100.6,51.9z"/>
			<path class="st2" d="M143.1,51.9c0,2.2-0.4,4.2-1.2,6.1s-1.9,3.4-3.2,4.8c-1.4,1.3-3,2.4-4.9,3.1c-1.9,0.7-3.9,1.1-6.1,1.1
				c-2.2,0-4.2-0.4-6.1-1.1s-3.5-1.8-4.9-3.1s-2.4-2.9-3.2-4.8s-1.2-3.9-1.2-6.1s0.4-4.2,1.2-6s1.8-3.4,3.2-4.7s3-2.3,4.9-3.1
				s3.9-1.1,6.1-1.1c2.2,0,4.2,0.4,6.1,1.1s3.5,1.8,4.9,3.1s2.5,2.9,3.2,4.7C142.7,47.7,143.1,49.7,143.1,51.9z M137.2,51.9
				c0-1.4-0.2-2.7-0.6-3.9c-0.4-1.2-1-2.3-1.8-3.3s-1.8-1.7-3-2.2s-2.5-0.8-4.1-0.8c-1.5,0-2.9,0.3-4.1,0.8s-2.2,1.3-3,2.2
				c-0.8,0.9-1.4,2-1.8,3.3c-0.4,1.2-0.6,2.5-0.6,3.9s0.2,2.7,0.6,3.9c0.4,1.2,1,2.3,1.8,3.3c0.8,1,1.8,1.7,3,2.3s2.5,0.8,4.1,0.8
				c1.5,0,2.9-0.3,4.1-0.8s2.2-1.3,3-2.3c0.8-1,1.4-2,1.8-3.3C137,54.6,137.2,53.3,137.2,51.9z"/>
			<path class="st2" d="M166.2,45c-0.6-1-1.5-1.9-2.7-2.5s-2.5-1-3.9-1c-0.6,0-1.3,0.1-1.9,0.2s-1.2,0.4-1.7,0.7s-0.9,0.7-1.2,1.1
				s-0.4,1-0.4,1.7c0,1.2,0.5,2.1,1.6,2.7c1.1,0.6,2.7,1.1,4.9,1.6c1.4,0.3,2.6,0.7,3.8,1.1s2.2,1,3,1.7s1.5,1.5,2,2.4
				s0.7,2,0.7,3.2c0,1.7-0.3,3.1-1,4.3s-1.5,2.1-2.6,2.8s-2.3,1.3-3.6,1.6S160.4,67,159,67c-2.2,0-4.3-0.4-6.3-1.3
				c-2.1-0.8-3.8-2.1-5.1-3.8l4-3.4c0.8,1.1,1.8,2.1,3.1,2.8s2.8,1.1,4.4,1.1c0.7,0,1.4-0.1,2.1-0.2s1.3-0.4,1.8-0.7
				c0.5-0.3,1-0.7,1.3-1.3c0.3-0.5,0.5-1.2,0.5-2c0-1.3-0.6-2.3-1.9-2.9s-3.1-1.2-5.6-1.8c-1-0.2-1.9-0.5-2.9-0.9
				c-1-0.3-1.9-0.8-2.7-1.4s-1.4-1.3-1.9-2.2s-0.8-2-0.8-3.3c0-1.5,0.3-2.8,0.9-3.9s1.4-2,2.4-2.7s2.1-1.2,3.4-1.6s2.6-0.5,4-0.5
				c2,0,4,0.4,5.9,1.2c1.9,0.8,3.4,2,4.4,3.5L166.2,45z"/>
			<path class="st2" d="M204.1,51.7c0,0.3,0,0.6,0,1s0,0.6-0.1,1h-22.6c0,1.2,0.3,2.3,0.8,3.4c0.5,1,1.2,2,2,2.7s1.8,1.4,2.9,1.8
				s2.3,0.7,3.5,0.7c1.9,0,3.6-0.4,5-1.3s2.5-1.9,3.3-3.1l4,3.2c-1.5,2-3.3,3.5-5.4,4.5s-4.4,1.4-6.9,1.4c-2.2,0-4.2-0.4-6-1.1
				s-3.4-1.7-4.7-3c-1.3-1.3-2.4-2.9-3.1-4.7s-1.1-3.9-1.1-6.1c0-2.2,0.4-4.2,1.1-6.1s1.8-3.5,3.1-4.8s2.9-2.3,4.7-3.1
				s3.8-1.1,5.8-1.1s4,0.3,5.7,1s3.1,1.7,4.3,2.9c1.2,1.3,2.1,2.8,2.7,4.7C203.8,47.4,204.1,49.5,204.1,51.7z M198.3,49.5
				c0-1.1-0.2-2.2-0.6-3.2c-0.3-1-0.8-1.8-1.5-2.5c-0.7-0.7-1.5-1.3-2.5-1.7c-1-0.4-2.1-0.6-3.4-0.6c-1.2,0-2.3,0.2-3.4,0.6
				c-1.1,0.4-2,1-2.8,1.7c-0.8,0.7-1.4,1.6-1.9,2.5s-0.8,2-0.9,3.2H198.3z"/>
			<path class="st2" d="M234.6,61.7c-1.1,1.7-2.6,3-4.4,3.9s-3.8,1.3-5.9,1.3c-2.2,0-4.2-0.4-5.9-1.2c-1.8-0.8-3.3-1.8-4.5-3.2
				s-2.2-3-2.9-4.8c-0.7-1.8-1-3.8-1-5.9s0.3-4,1-5.8c0.7-1.8,1.6-3.4,2.9-4.8c1.3-1.4,2.8-2.4,4.5-3.2s3.7-1.1,5.8-1.1
				c2.3,0,4.3,0.5,6.1,1.5s3.1,2.2,4.1,3.6h0.1V20.8h5.6v45.4h-5.5v-4.5H234.6z M215.8,51.9c0,1.3,0.2,2.6,0.6,3.8
				c0.4,1.2,1,2.3,1.8,3.3s1.8,1.7,2.9,2.3c1.2,0.6,2.5,0.9,4.1,0.9c1.4,0,2.8-0.3,3.9-0.8s2.2-1.3,3-2.2c0.8-0.9,1.5-2,1.9-3.3
				c0.5-1.2,0.7-2.5,0.7-3.9s-0.2-2.7-0.7-3.9c-0.5-1.2-1.1-2.3-1.9-3.3c-0.8-1-1.9-1.7-3-2.3s-2.5-0.8-3.9-0.8
				c-1.6,0-2.9,0.3-4.1,0.8s-2.1,1.3-2.9,2.3c-0.8,1-1.4,2-1.8,3.3C216,49.4,215.8,50.6,215.8,51.9z"/>
		</g>
	</g>
	<g id="Bottom">
		<defs>
			<rect id="SVGID_2_" x="-1.2" y="47" width="262.5" height="42.3"/>
		</defs>
		<clipPath id="SVGID_6_">
			<use xlink:href="#SVGID_2_"  style="overflow:visible;"/>
		</clipPath>
		<g id="Illposed_2_" class="st4">
			<path class="st1" d="M28.2,66.7H21v-51h7.1V66.7z"/>
			<path class="st1" d="M47.1,66.7h-6.8V12.3h6.8V66.7z"/>
			<path class="st1" d="M65.8,66.7h-6.8V12.3h6.8V66.7z"/>
			<path class="st2" d="M81.6,81.1H76V38.3h5.5v4.4h0.2c0.9-1.5,2.3-2.8,4-3.8s3.8-1.5,6.2-1.5c2.1,0,4,0.4,5.8,1.1s3.2,1.8,4.5,3.2
				c1.3,1.4,2.2,3,2.9,4.8s1,3.8,1,5.8s-0.3,4-1,5.9s-1.6,3.4-2.9,4.8c-1.2,1.4-2.7,2.4-4.5,3.2c-1.8,0.8-3.7,1.2-5.9,1.2
				c-2,0-3.9-0.4-5.8-1.3s-3.2-2.1-4.2-3.7h-0.2L81.6,81.1L81.6,81.1z M100.3,52.5c0-1.3-0.2-2.6-0.6-3.8s-1-2.3-1.8-3.3
				s-1.8-1.7-3-2.3c-1.2-0.6-2.6-0.8-4.1-0.8c-1.4,0-2.8,0.3-3.9,0.8s-2.2,1.3-3,2.3s-1.5,2.1-1.9,3.3c-0.5,1.2-0.7,2.5-0.7,3.9
				s0.2,2.7,0.7,3.9s1.1,2.3,1.9,3.3c0.8,0.9,1.8,1.7,3,2.2s2.5,0.8,3.9,0.8c1.6,0,2.9-0.3,4.1-0.9c1.2-0.6,2.2-1.3,3-2.3
				c0.8-1,1.4-2.1,1.8-3.3C100.1,55.1,100.3,53.8,100.3,52.5z"/>
			<path class="st2" d="M142.8,52.5c0,2.2-0.4,4.2-1.2,6.1s-1.9,3.4-3.2,4.8s-3,2.4-4.9,3.1c-1.9,0.7-3.9,1.1-6.1,1.1
				c-2.2,0-4.2-0.4-6.1-1.1s-3.5-1.8-4.9-3.1c-1.4-1.3-2.4-2.9-3.2-4.8s-1.2-3.9-1.2-6.1s0.4-4.2,1.2-6s1.8-3.4,3.2-4.7
				s3-2.3,4.9-3.1s3.9-1.1,6.1-1.1c2.2,0,4.2,0.4,6.1,1.1s3.5,1.8,4.9,3.1s2.5,2.9,3.2,4.7C142.4,48.3,142.8,50.3,142.8,52.5z
				 M136.9,52.5c0-1.4-0.2-2.7-0.6-3.9c-0.4-1.2-1-2.3-1.8-3.3s-1.8-1.7-3-2.2s-2.5-0.8-4.1-0.8c-1.5,0-2.9,0.3-4.1,0.8
				s-2.2,1.3-3,2.2c-0.8,0.9-1.4,2-1.8,3.3c-0.4,1.2-0.6,2.5-0.6,3.9s0.2,2.7,0.6,3.9c0.4,1.2,1,2.3,1.8,3.3c0.8,1,1.8,1.7,3,2.3
				s2.5,0.8,4.1,0.8c1.5,0,2.9-0.3,4.1-0.8s2.2-1.3,3-2.3c0.8-1,1.4-2,1.8-3.3C136.7,55.1,136.9,53.9,136.9,52.5z"/>
			<path class="st2" d="M166,45.5c-0.6-1-1.5-1.9-2.7-2.5s-2.5-1-3.9-1c-0.6,0-1.3,0.1-1.9,0.2s-1.2,0.4-1.7,0.7s-0.9,0.7-1.2,1.1
				s-0.4,1-0.4,1.7c0,1.2,0.5,2.1,1.6,2.7c1.1,0.6,2.7,1.1,4.9,1.6c1.4,0.3,2.6,0.7,3.8,1.1s2.2,1,3,1.7s1.5,1.5,2,2.4
				s0.7,2,0.7,3.2c0,1.7-0.3,3.1-1,4.3s-1.5,2.1-2.6,2.8s-2.3,1.3-3.6,1.6s-2.8,0.5-4.2,0.5c-2.2,0-4.3-0.4-6.3-1.3
				c-2.1-0.8-3.8-2.1-5.1-3.8l4-3.4c0.8,1.1,1.8,2.1,3.1,2.8s2.8,1.1,4.4,1.1c0.7,0,1.4-0.1,2.1-0.2s1.3-0.4,1.8-0.7
				c0.5-0.3,1-0.7,1.3-1.3c0.3-0.5,0.5-1.2,0.5-2c0-1.3-0.6-2.3-1.9-2.9s-3.1-1.2-5.6-1.8c-1-0.2-1.9-0.5-2.9-0.9
				c-1-0.3-1.9-0.8-2.7-1.4s-1.4-1.3-1.9-2.2s-0.8-2-0.8-3.3c0-1.5,0.3-2.8,0.9-3.9s1.4-2,2.4-2.7s2.1-1.2,3.4-1.6s2.6-0.5,4-0.5
				c2,0,4,0.4,5.9,1.2c1.9,0.8,3.4,2,4.4,3.5L166,45.5z"/>
			<path class="st2" d="M203.8,52.3c0,0.3,0,0.6,0,1s0,0.6-0.1,1h-22.6c0,1.2,0.3,2.3,0.8,3.4c0.5,1,1.2,2,2,2.7s1.8,1.4,2.9,1.8
				s2.3,0.7,3.5,0.7c1.9,0,3.6-0.4,5-1.3s2.5-1.9,3.3-3.1l4,3.2c-1.5,2-3.3,3.5-5.4,4.4s-4.4,1.4-6.9,1.4c-2.2,0-4.2-0.4-6-1.1
				s-3.4-1.7-4.7-3s-2.4-2.9-3.1-4.7s-1.1-3.9-1.1-6.1c0-2.2,0.4-4.2,1.1-6.1s1.8-3.5,3.1-4.8s2.9-2.3,4.7-3.1s3.8-1.1,5.8-1.1
				s4,0.3,5.7,1s3.1,1.7,4.3,2.9c1.2,1.3,2.1,2.8,2.7,4.7C203.5,48,203.8,50,203.8,52.3z M198.1,50c0-1.1-0.2-2.2-0.6-3.2
				c-0.3-1-0.8-1.8-1.5-2.5c-0.7-0.7-1.5-1.3-2.5-1.7c-1-0.4-2.1-0.6-3.4-0.6c-1.2,0-2.3,0.2-3.4,0.6c-1.1,0.4-2,1-2.8,1.7
				c-0.8,0.7-1.4,1.6-1.9,2.5s-0.8,2-0.9,3.2H198.1z"/>
			<path class="st2" d="M234.3,62.2c-1.1,1.7-2.6,3-4.4,3.9s-3.8,1.3-5.9,1.3c-2.2,0-4.2-0.4-5.9-1.2c-1.8-0.8-3.3-1.8-4.5-3.2
				c-1.2-1.4-2.2-3-2.9-4.8c-0.7-1.8-1-3.8-1-5.9s0.3-4,1-5.8c0.7-1.8,1.6-3.4,2.9-4.8c1.3-1.4,2.8-2.4,4.5-3.2s3.7-1.1,5.8-1.1
				c2.3,0,4.3,0.5,6.1,1.5s3.1,2.2,4.1,3.6h0.1V21.4h5.6v45.4h-5.5v-4.5H234.3z M215.6,52.5c0,1.3,0.2,2.6,0.6,3.8
				c0.4,1.2,1,2.3,1.8,3.3s1.8,1.7,2.9,2.3c1.2,0.6,2.5,0.9,4.1,0.9c1.4,0,2.8-0.3,3.9-0.8s2.2-1.3,3-2.2c0.8-0.9,1.5-2,1.9-3.3
				c0.5-1.2,0.7-2.5,0.7-3.9s-0.2-2.7-0.7-3.9c-0.5-1.2-1.1-2.3-1.9-3.3c-0.8-1-1.9-1.7-3-2.3s-2.5-0.8-3.9-0.8
				c-1.6,0-2.9,0.3-4.1,0.8s-2.1,1.3-2.9,2.3c-0.8,1-1.4,2-1.8,3.3C215.8,49.9,215.6,51.2,215.6,52.5z"/>
		</g>
	</g>
</g>
<g id="Tick_Labels">
	<text transform="matrix(1 0 0 1 7.5 77.25)" class="st5 st6">0</text>
	<text transform="matrix(1 0 0 1 7.5 28.5)" class="st5 st6">1</text>
	<text transform="matrix(1 0 0 1 82.5 77.25)" class="st5 st6">1</text>
	<text transform="matrix(1 0 0 1 150 77.25)" class="st5 st6">2</text>
	<text transform="matrix(1 0 0 1 217.5 77.25)" class="st5 st6">3</text>
</g>
<g id="Axes">
	<line class="st7" x1="15" y1="66.8" x2="244.5" y2="66.8"/>
	<line class="st7" x1="15" y1="67.9" x2="15" y2="7.1"/>
</g>
</svg>
